<?xml version="1.0" standalone="no"?>
<!DOCTYPE svg PUBLIC "-//W3C//DTD SVG 20010904//EN"
 "http://www.w3.org/TR/2001/REC-SVG-20010904/DTD/svg10.dtd">
<svg version="1.0" xmlns="http://www.w3.org/2000/svg"
 width="1694.000000pt" height="1694.000000pt" viewBox="0 0 1694.000000 1694.000000"
 preserveAspectRatio="xMidYMid meet">
<metadata>
Created by potrace 1.14, written by Peter Selinger 2001-2017
</metadata>
<g transform="translate(0.000000,1694.000000) scale(0.100000,-0.100000)"
fill="#000000" stroke="none">
<path d="M6040 14769 c-483 -32 -900 -361 -1085 -854 -34 -90 -71 -229 -80
-298 -21 -150 -23 -270 -10 -402 5 -44 9 -86 9 -94 1 -13 -187 -15 -1409 -16
-775 -1 -1428 -5 -1450 -9 -22 -3 -56 -9 -75 -12 -74 -13 -87 -15 -160 -36
-553 -153 -1008 -610 -1205 -1213 -43 -134 -79 -301 -92 -437 -10 -104 -11
-7417 -1 -7513 4 -38 9 -79 12 -90 2 -11 7 -42 11 -70 5 -27 9 -52 10 -55 1
-3 5 -23 9 -45 11 -56 74 -262 96 -310 9 -22 30 -69 46 -105 37 -86 139 -258
204 -345 246 -328 582 -557 954 -649 185 -47 -149 -45 6676 -42 3539 1 6451 5
6470 9 19 4 69 15 110 24 481 102 909 448 1160 938 72 141 153 359 174 472 30
160 37 210 44 283 9 113 9 7382 -1 7485 -18 196 -84 458 -154 615 -29 65 -89
187 -106 215 -28 47 -122 191 -132 202 -5 7 -14 18 -20 25 -55 73 -160 184
-246 259 -245 216 -526 343 -874 395 -27 4 -729 8 -1560 9 l-1510 1 5 49 c7
81 6 375 -3 435 -91 639 -573 1136 -1142 1176 -111 8 -4558 10 -4675 3z"/>
</g>
</svg>
